<?xml version="1.0" encoding="UTF-8"?> <svg xmlns="http://www.w3.org/2000/svg" xmlns:xlink="http://www.w3.org/1999/xlink" viewBox="0 0 160 160"><defs><style> .a { fill: none; } .b { clip-path: url(#a); } .c { fill: #753bbd; } </style><clipPath id="a"><rect class="a" x="8" y="8" width="144" height="144"></rect></clipPath></defs><g class="b"><g><path class="c" d="M131.163,28.8362a2.2595,2.2595,0,0,1,.004,3.1938L32.0127,131.187a2.2618,2.2618,0,0,1-3.1983-3.199L127.97,28.8317a2.2586,2.2586,0,0,1,3.193.0045Z"></path><path class="c" d="M120.634,20.1761a2.26,2.26,0,0,1,.005,3.1942L23.34,120.669a2.2614,2.2614,0,0,1-3.1982-3.198L117.44,20.172a2.2589,2.2589,0,0,1,3.194.0041Z"></path><path class="c" d="M108.117,13.5036a2.2441,2.2441,0,0,1,.49.7322,2.2557,2.2557,0,0,1-.486,2.462L16.6831,108.136a2.2618,2.2618,0,0,1-3.1982-3.199L104.923,13.5a2.2589,2.2589,0,0,1,3.194.0041Z"></path><path class="c" d="M93.166,9.2649a2.2586,2.2586,0,0,1,.0041,3.1938l-80.75,80.75A2.2615,2.2615,0,0,1,9.2223,90.01l80.75-80.75a2.2585,2.2585,0,0,1,3.1942.0045Z"></path><path class="c" d="M74.5773,8.6638a2.2578,2.2578,0,0,1,.0041,3.1938L11.8576,74.5817a2.2615,2.2615,0,0,1-3.1983-3.1983L71.3831,8.6593a2.2588,2.2588,0,0,1,3.1942.0045Z"></path><path class="c" d="M46.1472,17.9031a2.2582,2.2582,0,0,1,.0045,3.1938L21.0944,46.154a2.2615,2.2615,0,0,1-3.1983-3.1983L42.9534,17.8986a2.2579,2.2579,0,0,1,3.1938.0045Z"></path><path class="c" d="M139.824,39.3656a2.2576,2.2576,0,0,1,.004,3.1942L42.53,139.858a2.2579,2.2579,0,0,1-1.5978.66,2.2858,2.2858,0,0,1-.864-.173,2.2615,2.2615,0,0,1-.7365-3.685L136.63,39.3616a2.2587,2.2587,0,0,1,3.194.004Z"></path><path class="c" d="M146.496,51.8838a2.2594,2.2594,0,0,1,.005,3.1938L55.0627,146.516a2.2614,2.2614,0,0,1-3.1983-3.198L143.302,51.88a2.2588,2.2588,0,0,1,3.194.0041Z"></path><path class="c" d="M150.735,66.8345a2.2574,2.2574,0,0,1,.004,3.1938L69.99,150.778a2.2615,2.2615,0,0,1-3.1984-3.198L147.541,66.83a2.2582,2.2582,0,0,1,3.194.0045Z"></path><path class="c" d="M151.337,85.4241a2.26,2.26,0,0,1,.004,3.1942L88.6168,151.342a2.2614,2.2614,0,0,1-3.1983-3.198L148.142,85.42a2.26,2.26,0,0,1,3.195.0041Z"></path><path class="c" d="M142.097,113.852a2.2571,2.2571,0,0,1,.004,3.194l-25.057,25.057a2.2619,2.2619,0,0,1-.733.488,2.2537,2.2537,0,0,1-2.46-.493,2.26,2.26,0,0,1-.494-2.46,2.2809,2.2809,0,0,1,.489-.733l25.057-25.057a2.2488,2.2488,0,0,1,.733-.489,2.2567,2.2567,0,0,1,2.461.493Z"></path></g></g></svg> 